<?xml version="1.0" encoding="UTF-8" standalone="no"?>
<svg
   viewBox="0 0 576 576"
   version="1.1"
   id="svg1"
   sodipodi:docname="fvidl-icon.svg"
   width="576"
   height="576"
   inkscape:version="1.3 (0e150ed6c4, 2023-07-21)"
   xmlns:inkscape="http://www.inkscape.org/namespaces/inkscape"
   xmlns:sodipodi="http://sodipodi.sourceforge.net/DTD/sodipodi-0.dtd"
   xmlns="http://www.w3.org/2000/svg"
   xmlns:svg="http://www.w3.org/2000/svg">
  <defs
     id="defs1" />
  <sodipodi:namedview
     id="namedview1"
     pagecolor="#505050"
     bordercolor="#ffffff"
     borderopacity="1"
     inkscape:showpageshadow="0"
     inkscape:pageopacity="0"
     inkscape:pagecheckerboard="1"
     inkscape:deskcolor="#d1d1d1"
     inkscape:zoom="1.9895833"
     inkscape:cx="288"
     inkscape:cy="288"
     inkscape:window-width="2560"
     inkscape:window-height="1375"
     inkscape:window-x="1920"
     inkscape:window-y="28"
     inkscape:window-maximized="1"
     inkscape:current-layer="svg1" />
  <g
     id="g1"
     transform="matrix(29.066251,0,0,29.066251,-74.181354,-82.562527)">
    <path
       d="M 10.868205,17.959421 H 4.2749772 v 1.648306 h 6.5932278 c 4.551674,0 8.241532,-3.689899 8.241532,-8.241532 0,-4.5516757 -3.689858,-8.2415338 -8.241532,-8.2415338 -4.551635,0 -8.241534,3.6898581 -8.241534,8.2415338 0,1.855333 0.6130875,3.567511 1.6477293,4.944919 H 6.5071138 C 5.1382779,15.102987 4.2749772,13.335427 4.2749772,11.366195 c 0,-3.6413407 2.9518709,-6.5932272 6.5932278,-6.5932272 3.641339,0 6.593227,2.9518865 6.593227,6.5932272 0,3.641354 -2.951888,6.593226 -6.593227,6.593226 z m 0,-8.2415329 c 0.910361,0 1.648306,-0.7379718 1.648306,-1.6483071 0,-0.910335 -0.737946,-1.6483065 -1.648307,-1.6483065 -0.9103603,0 -1.6483063,0.7379715 -1.6483063,1.6483065 0,0.9103353 0.737946,1.6483071 1.6483073,1.6483071 z m 3.296612,3.2966129 c 0.910336,0 1.648308,-0.737946 1.648308,-1.648306 0,-0.91036 -0.737972,-1.6483069 -1.648308,-1.6483069 -0.910334,0 -1.648306,0.7379469 -1.648306,1.6483069 0,0.91036 0.737972,1.648306 1.648306,1.648306 z m -6.5932263,0 c 0.9103596,0 1.648307,-0.737946 1.648307,-1.648306 0,-0.91036 -0.7379474,-1.6483069 -1.648307,-1.6483069 -0.9103598,0 -1.6483064,0.7379469 -1.6483064,1.6483069 0,0.91036 0.7379466,1.648306 1.6483064,1.648306 z m 3.2966133,3.296613 c 0.910361,0 1.648307,-0.737947 1.648307,-1.648306 0,-0.91036 -0.737946,-1.648307 -1.648307,-1.648307 -0.9103603,0 -1.6483063,0.737947 -1.6483063,1.648307 0,0.910359 0.737946,1.648306 1.6483063,1.648306 z"
       id="path1-5"
       style="stroke-width:0.824154" />
    <rect
       style="fill:#000000;fill-opacity:1;stroke-width:4.31417;stroke-linecap:round;stroke-linejoin:bevel;stroke-miterlimit:3"
       id="rect1"
       width="2.1872663"
       height="7.5436597"
       x="-1.1492856"
       y="22.947432"
       transform="rotate(-45)" />
  </g>
</svg>
